<?xml version="1.0" encoding="UTF-8"?>
<svg version="1.1" xmlns="http://www.w3.org/2000/svg" width="500" height="500">
<path d="M0 0 C165 0 330 0 500 0 C500 165 500 330 500 500 C335 500 170 500 0 500 C0 335 0 170 0 0 Z " fill="#004AAD" transform="translate(0,0)"/>
<path d="M0 0 C15.51 0 31.02 0 47 0 C49.01837408 5.38233087 50.96585434 10.74911043 52.77734375 16.19921875 C53.15627525 17.33457817 53.15627525 17.33457817 53.54286194 18.49287415 C54.07382645 20.08509179 54.60404444 21.67755856 55.13354492 23.27026367 C55.92990001 25.66464926 56.72942559 28.05795895 57.52929688 30.45117188 C58.04967133 32.01295682 58.56985941 33.57480388 59.08984375 35.13671875 C59.3222728 35.83198166 59.55470184 36.52724457 59.79417419 37.24357605 C61.19473185 41.46442172 62.5257465 45.70190781 63.82177734 49.95605469 C66.09859426 57.38846618 68.52399908 64.76875756 70.96292686 72.14914131 C71.78605122 74.64003997 72.607536 77.13147458 73.42866516 79.62303162 C75.18017897 84.93666035 76.93375434 90.24960754 78.6875 95.5625 C83.1352759 109.03829616 87.57826358 122.51563359 92 136 C92.365453 137.1139426 92.365453 137.1139426 92.73828888 138.2503891 C94.27744253 142.94433217 95.80736095 147.64117609 97.33203125 152.33984375 C97.71010422 153.49464737 98.08817719 154.64945099 98.47770691 155.83924866 C98.81482193 156.8835051 99.15193695 157.92776154 99.49926758 159.00366211 C99.79158768 159.90362411 100.08390778 160.80358612 100.38508606 161.7308197 C101 164 101 164 101 167 C102.65 167 104.3 167 106 167 C106.12434921 165.97945023 106.24869843 164.95890045 106.3768158 163.90742493 C106.9601915 160.24960312 107.82144802 156.9958704 108.97094727 153.48120117 C109.17005612 152.86695062 109.36916498 152.25270006 109.57430744 151.61983585 C110.23294712 149.59241152 110.89966981 147.56774333 111.56640625 145.54296875 C112.03748987 144.09789096 112.50802801 142.65263524 112.97805786 141.20721436 C113.9791707 138.13202477 114.98371846 135.05798813 115.99105835 131.98483276 C117.57460788 127.15335896 119.15012429 122.31929168 120.72387695 117.48461914 C121.25309046 115.85905226 121.78231104 114.23348769 122.3115387 112.60792542 C122.57328951 111.80390352 122.83504032 110.99988163 123.10472298 110.17149544 C123.89936358 107.73153146 124.69474437 105.29180993 125.49034119 102.85215759 C129.93264809 89.22771077 134.32635916 75.58816504 138.6875 61.9375 C139.00519348 60.94431763 139.32288696 59.95113525 139.65020752 58.92785645 C142.99504215 48.47017069 146.31862398 38.00608508 149.609375 27.53125 C150.03746208 26.16982628 150.03746208 26.16982628 150.47419739 24.78089905 C151.80793355 20.53820651 153.13833528 16.29453268 154.46166992 12.04858398 C154.92097364 10.58314313 155.38035956 9.11772803 155.83984375 7.65234375 C156.04627502 6.98533447 156.2527063 6.3183252 156.46539307 5.63110352 C157.886644 1.113356 157.886644 1.113356 159 0 C160.44289787 -0.09295815 161.89029785 -0.11746513 163.33618164 -0.11352539 C164.2570607 -0.11344986 165.17793976 -0.11337433 166.12672424 -0.11329651 C167.12775681 -0.10813522 168.12878937 -0.10297394 169.16015625 -0.09765625 C170.68956093 -0.09553383 170.68956093 -0.09553383 172.24986267 -0.09336853 C175.52077107 -0.08775097 178.79161213 -0.0751955 182.0625 -0.0625 C184.27408756 -0.05748726 186.48567618 -0.05292396 188.69726562 -0.04882812 C194.13153357 -0.03777584 199.56576197 -0.02102063 205 0 C202.9589691 6.94362232 200.77340999 13.82716745 198.48046875 20.69140625 C198.14552399 21.69755981 197.81057922 22.70371338 197.46548462 23.74035645 C196.37457688 27.01499205 195.28119447 30.28879417 194.1875 33.5625 C193.81039886 34.69291718 193.43329773 35.82333435 193.04476929 36.98800659 C187.74690289 52.86707691 182.38737995 68.72381721 176.95663452 84.55789185 C172.26979757 98.22520214 167.67820012 111.92228671 163.12518311 125.63470459 C158.51313683 139.51981518 153.81846851 153.37485188 149.07070923 167.21411133 C145.76048094 176.86473689 142.47965246 186.52388545 139.265625 196.20703125 C138.96294205 197.11861496 138.66025909 198.03019867 138.34840393 198.96940613 C136.89330873 203.35520161 135.44275561 207.74244471 133.99780273 212.1315918 C133.48165761 213.69191092 132.96546563 215.25221454 132.44921875 216.8125 C132.21450867 217.53013016 131.97979858 218.24776031 131.73797607 218.98713684 C130.11311409 223.88688591 130.11311409 223.88688591 129 225 C127.34261557 225.09346915 125.68125356 225.11744977 124.02124023 225.11352539 C122.96021591 225.11344986 121.89919159 225.11337433 120.80601501 225.11329651 C119.651866 225.10813522 118.49771698 225.10297394 117.30859375 225.09765625 C116.13361832 225.0962413 114.95864288 225.09482635 113.74806213 225.09336853 C109.97784936 225.08774992 106.20769496 225.07519426 102.4375 225.0625 C99.88867273 225.0574874 97.33984453 225.05292408 94.79101562 225.04882812 C88.52732302 225.03777444 82.26366753 225.02062218 76 225 C73.39716529 218.64734987 70.99035572 212.26918452 68.81811523 205.75732422 C68.52579199 204.88881647 68.23346874 204.02030872 67.93228722 203.12548256 C66.97171229 200.26944249 66.01515802 197.41207307 65.05859375 194.5546875 C64.37654523 192.52444589 63.69422216 190.49429649 63.01164246 188.4642334 C61.5664231 184.16440811 60.12288557 179.86402358 58.6807251 175.56317139 C56.42407798 168.83359362 54.16346048 162.10535438 51.90185547 155.37744141 C51.52809532 154.26554632 51.15433517 153.15365124 50.76924896 152.00806236 C50.01801762 149.77326977 49.26677155 147.53848212 48.51551056 145.30369949 C47.39686546 141.97569436 46.27856569 138.64757335 45.16033936 135.31942749 C39.67506352 118.99556215 34.16540723 102.68024234 28.625 86.375 C27.90240734 84.24683221 27.17983227 82.11865845 26.45727539 79.99047852 C23.21739854 70.45123427 19.97145166 60.91406929 16.71994209 51.37878418 C14.92084925 46.1024814 13.12382666 40.82547597 11.32803154 35.54804993 C9.84647842 31.1948093 8.36040197 26.84312851 6.87353516 22.49169922 C6.11081433 20.25104064 5.34827191 18.01032133 4.5859375 15.76953125 C4.23593689 14.74854843 3.88593628 13.72756561 3.52532959 12.67564392 C3.2055011 11.73314285 2.88567261 10.79064178 2.55615234 9.81958008 C2.27814789 9.00475662 2.00014343 8.18993317 1.7137146 7.35041809 C0.98272406 4.94310656 0.49339857 2.46699287 0 0 Z " fill="#FDFDFE" transform="translate(41,80)"/>
<path d="M0 0 C15.51 0 31.02 0 47 0 C48.5675 4.516875 50.135 9.03375 51.75 13.6875 C52.2356543 15.08315186 52.72130859 16.47880371 53.22167969 17.91674805 C55.60592182 24.81000138 57.86566967 31.72520189 59.98144531 38.70629883 C61.87819649 44.83982474 63.95037559 50.91624343 66 57 C66.85607587 59.54103003 67.70989739 62.08280273 68.5625 64.625 C68.93503906 65.73101562 69.30757813 66.83703125 69.69140625 67.9765625 C70.77990435 71.27044014 71.79341988 74.58482515 72.80419922 77.90332031 C75.03331916 85.17737276 77.41084032 92.39826997 79.80649185 99.61870575 C80.59038627 101.98240397 81.37203102 104.34683558 82.15304565 106.71148682 C84.37030186 113.42417464 86.58939093 120.13624839 88.81494141 126.84619141 C90.18494391 130.97722698 91.55064216 135.10966459 92.91363144 139.2430191 C93.42950519 140.80470578 93.94696168 142.36587062 94.46609879 143.92647552 C97.00239429 151.55264451 99.47901276 159.09175518 101 167 C102.96329606 166.8507301 102.96329606 166.8507301 105 166 C106.14662701 164.01122245 106.14662701 164.01122245 106.80883789 161.46411133 C107.10809677 160.49092453 107.40735565 159.51773773 107.71568298 158.51506042 C108.02735916 157.4440358 108.33903534 156.37301117 108.66015625 155.26953125 C109.36258162 152.96669641 110.06590534 150.66413544 110.77001953 148.36181641 C111.13444153 147.15189026 111.49886353 145.94196411 111.87432861 144.69537354 C113.71531686 138.65174542 115.67232598 132.64627385 117.62109375 126.63671875 C118.42039314 124.1570529 119.21921685 121.67723367 120.01757812 119.19726562 C120.82420402 116.69400567 121.63084466 114.19075047 122.4375 111.6875 C125.62580807 101.79192685 128.81347643 91.89614794 132 82 C132.38239838 80.81255188 132.76479675 79.62510376 133.15878296 78.40167236 C137.2278908 65.76342824 141.28452176 53.12141158 145.30859375 40.46875 C146.34059883 37.22749443 147.37278323 33.98629602 148.4050293 30.74511719 C149.10690952 28.53906565 149.80771681 26.33267252 150.50756836 24.12597656 C151.54239751 20.86426694 152.58134608 17.60389452 153.62109375 14.34375 C153.93251816 13.3585437 154.24394257 12.3733374 154.56480408 11.35827637 C154.85593582 10.44791626 155.14706757 9.53755615 155.44702148 8.59960938 C155.6996727 7.80470093 155.95232391 7.00979248 156.21263123 6.1907959 C157 4 157 4 159 0 C173.85 0 188.7 0 204 0 C202.77867905 5.49594427 201.64249427 10.44667776 199.88378906 15.70507812 C199.46813187 16.95501053 199.05247467 18.20494293 198.6242218 19.49275208 C198.17147182 20.83895694 197.71860284 22.18512179 197.265625 23.53125 C196.79070945 24.95326351 196.31616446 26.37540083 195.84196472 27.7976532 C194.57811326 31.58423087 193.30851766 35.36885837 192.0376091 39.15307236 C190.98142493 42.30030341 189.92865967 45.44867368 188.87585735 48.59703732 C182.58392484 67.41089328 176.23885735 86.20602315 169.79589844 104.96875 C165.49684717 117.49438284 161.30256671 130.05339439 157.12957764 142.621521 C152.09673579 157.7739382 146.9639804 172.89062771 141.78637695 187.99414062 C138.41859406 197.82143369 135.07552492 207.65478912 131.86352539 217.53442383 C130.10502995 222.89497005 130.10502995 222.89497005 129 224 C127.31198015 224.09353163 125.62004793 224.11744791 123.92944336 224.11352539 C122.84839828 224.11344986 121.76735321 224.11337433 120.65354919 224.11329651 C118.889515 224.10555458 118.889515 224.10555458 117.08984375 224.09765625 C115.89267227 224.0962413 114.69550079 224.09482635 113.46205139 224.09336853 C109.62050934 224.08774979 105.77902457 224.07519411 101.9375 224.0625 C99.34049563 224.05748741 96.74349035 224.05292409 94.14648438 224.04882812 C87.76430321 224.03777427 81.3821557 224.02101792 75 224 C74.5658931 222.71314049 74.5658931 222.71314049 74.12301636 221.40028381 C56.20106709 168.27053417 56.20106709 168.27053417 38.23840332 115.15454102 C36.93554299 111.30694238 35.63324279 107.45915431 34.33105469 103.61132812 C33.66885921 101.65468202 33.00665853 99.69803767 32.34445572 97.74139404 C31.89892128 96.42494906 31.45339261 95.10850212 31.00786972 93.79205322 C28.18233934 85.44333 25.35471177 77.09532073 22.52490234 68.74804688 C19.78427827 60.66383454 17.04587785 52.57887236 14.30972958 44.49314404 C12.82518992 40.10642416 11.33955639 35.72008158 9.85128784 31.33462524 C8.46124879 27.2385727 7.07401565 23.1415809 5.68894386 19.04384613 C5.17559683 17.52679605 4.66119441 16.01010265 4.14569664 14.49378204 C3.44020534 12.41809211 2.7384325 10.34118191 2.03759766 8.26391602 C1.64206696 7.09651382 1.24653625 5.92911163 0.83901978 4.72633362 C0 2 0 2 0 0 Z " fill="#FDFEFE" transform="translate(270,233)"/>
<path d="M0 0 C0.83192871 0.00829834 1.66385742 0.01659668 2.52099609 0.02514648 C13.62445419 0.32765489 22.80858268 3.44881233 30.75 11.4375 C37.95442152 20.07964599 40.26323963 28.91114269 40.0625 40 C40.06572266 40.89396484 40.06894531 41.78792969 40.07226562 42.70898438 C39.98973327 52.96550559 37.63167586 62.70553224 30.84375 70.67578125 C21.8700408 79.30809934 12.7531069 81.8620582 0.5625 82 C-0.36393311 82.01482422 -1.29036621 82.02964844 -2.24487305 82.04492188 C-12.25278755 81.89487014 -19.79634363 77.94034827 -27.25 71.4375 C-36.84136974 61.31327638 -37.84996893 48.39739939 -37.55859375 35.11328125 C-37.06792705 24.99251705 -33.45959244 16.590324 -26.25 9.4375 C-18.27545989 2.89722969 -10.2740839 -0.1327374 0 0 Z " fill="#FBFCFD" transform="translate(230.25,280.5625)"/>
<path d="M0 0 C5.03834004 3.68659028 8.04601201 7.26864694 9.28125 13.48046875 C10.43598084 23.31171884 10.61607103 33.72586923 4.25 41.8125 C-0.78905354 45.67968063 -4.77673971 47.475836 -11.12890625 47.21875 C-15.73389566 46.5330663 -19.72328263 44.93002616 -22.75390625 41.296875 C-27.92023861 32.83247807 -28.77002515 22.88116738 -26.9375 13.24609375 C-25.28096982 7.68354072 -22.67253457 2.93301763 -17.64453125 -0.265625 C-12.16855755 -2.39786255 -5.47958559 -1.79331892 0 0 Z " fill="#044CAE" transform="translate(240.4375,299.125)"/>
</svg>
